<?xml version="1.0" encoding="UTF-8"?>
<svg id="Layer_2" data-name="Layer 2" xmlns="http://www.w3.org/2000/svg" xmlns:xlink="http://www.w3.org/1999/xlink" viewBox="0 0 19 19">
  <defs>
    <style>
      .cls-1 {
        fill: #ff9800;
      }
    </style>
    <symbol id="New_Symbol_14" data-name="New Symbol 14" viewBox="0 0 19.32 19.29">
      <path class="cls-1" d="M2.99,19.29c-.77,0-1.53-.29-2.12-.88-1.17-1.17-1.17-3.07,0-4.24l3.14-3.14c.38-.38.59-.88.59-1.41s-.21-1.03-.59-1.41l-2.74-2.74c-.57-.57-.88-1.32-.88-2.12s.31-1.55.88-2.12C2.4.11,4.37.11,5.5,1.24l2.74,2.74c.78.78,2.04.78,2.82,0l3.13-3.14c1.13-1.13,3.1-1.13,4.24,0,.57.57.88,1.32.88,2.12s-.31,1.55-.88,2.12l-3.14,3.14c-.78.78-.78,2.04,0,2.82l2.73,2.72c.57.57.88,1.32.88,2.12s-.31,1.55-.88,2.12c-1.17,1.17-3.07,1.17-4.24,0l-2.72-2.72c-.78-.78-2.04-.78-2.82,0l-3.13,3.14c-.58.58-1.35.88-2.12.88M3.39,1.36c-.53,0-1.03.21-1.41.58-.38.38-.58.88-.58,1.41s.21,1.03.58,1.41l2.74,2.74c.57.57.88,1.32.88,2.12s-.31,1.55-.88,2.12l-3.14,3.14c-.78.78-.78,2.04,0,2.82.78.78,2.04.78,2.82,0l3.13-3.14c1.17-1.17,3.07-1.17,4.24,0l2.72,2.72c.78.78,2.04.78,2.82,0,.38-.38.58-.88.58-1.41s-.21-1.03-.58-1.41l-2.73-2.72c-1.17-1.17-1.17-3.07,0-4.24l3.14-3.14c.38-.38.58-.88.58-1.41s-.21-1.03-.58-1.41c-.75-.75-2.07-.75-2.82,0l-3.13,3.14c-1.17,1.17-3.07,1.17-4.24,0l-2.74-2.74c-.38-.38-.88-.58-1.41-.58"/>
    </symbol>
  </defs>
  <g id="Layer_1-2" data-name="Layer 1">
    <use width="19.32" height="19.29" transform="scale(.98)" xlink:href="#New_Symbol_14"/>
  </g>
</svg>