<?xml version="1.0" encoding="UTF-8"?>
<svg id="Layer_2" data-name="Layer 2" xmlns="http://www.w3.org/2000/svg" xmlns:xlink="http://www.w3.org/1999/xlink" viewBox="0 0 26.09 55">
  <defs>
    <style>
      .cls-1 {
        fill: #ff9800;
      }
    </style>
    <symbol id="New_Symbol" data-name="New Symbol" viewBox="0 0 78.83 37.39">
      <path class="cls-1" d="M22.15,15.24c1.91,1.91,1.91,5,0,6.91l-3.45,3.45-6.91,6.91-3.45,3.45c-1.91,1.91-5,1.91-6.91,0-1.91-1.91-1.91-5,0-6.91l3.45-3.45,3.45-3.45c1.91-1.91,1.91-5,0-6.91l-3.45-3.45-3.45-3.45C-.48,6.43-.48,3.34,1.43,1.43,3.34-.48,6.43-.48,8.34,1.43l3.45,3.45,6.91,6.91,3.45,3.45ZM46.32,11.79l-6.91-6.91-3.45-3.45c-1.91-1.91-5-1.91-6.91,0-1.91,1.91-1.91,5,0,6.91l3.45,3.45,3.45,3.45c1.91,1.91,1.91,5,0,6.91l-3.45,3.45-3.45,3.45c-1.91,1.91-1.91,5,0,6.91,1.91,1.91,5,1.91,6.91,0l3.45-3.45,6.91-6.91,3.45-3.45c1.91-1.91,1.91-5,0-6.91l-3.45-3.45ZM73.94,11.79l-6.91-6.91-3.45-3.45c-1.91-1.91-5-1.91-6.91,0-1.91,1.91-1.91,5,0,6.91l3.45,3.45,3.45,3.45c1.91,1.91,1.91,5,0,6.91l-3.45,3.45-3.45,3.45c-1.91,1.91-1.91,5,0,6.91,1.91,1.91,5,1.91,6.91,0l3.45-3.45,6.91-6.91,3.45-3.45c1.91-1.91,1.91-5,0-6.91l-3.45-3.45Z"/>
    </symbol>
  </defs>
  <g id="Layer_1-2" data-name="Layer 1">
    <use width="78.83" height="37.39" transform="translate(26.09) rotate(90) scale(.7)" xlink:href="#New_Symbol"/>
  </g>
</svg>