<?xml version="1.0" encoding="UTF-8"?>
<svg id="Layer_2" data-name="Layer 2" xmlns="http://www.w3.org/2000/svg" xmlns:xlink="http://www.w3.org/1999/xlink" viewBox="0 0 29 27">
  <defs>
    <style>
      .cls-1 {
        fill: #ff9800;
      }
    </style>
    <symbol id="New_Symbol_13" data-name="New Symbol 13" viewBox="0 0 28.27 27.1">
      <path class="cls-1" d="M5.7.99v1.52c0,.54.44.99.99.99h1.75c.54,0,.99.44.99.99s-.44.99-.99.99h-1.75c-.54,0-.99.44-.99.99v1.53c0,.55-.44.99-.99.99s-.99-.44-.99-.99v-1.53c0-.54-.44-.99-.99-.99H.99c-.54,0-.99-.44-.99-.99s.44-.99.99-.99h1.75c.54,0,.99-.44.99-.99V.99c0-.54.44-.99.99-.99s.99.44.99.99M24.54.99v1.52c0,.54.44.99.99.99h1.75c.54,0,.99.44.99.99s-.44.99-.99.99h-1.75c-.54,0-.99.44-.99.99v1.53c0,.55-.44.99-.99.99s-.99-.44-.99-.99v-1.53c0-.54-.44-.99-.99-.99h-1.75c-.54,0-.99-.44-.99-.99s.44-.99.99-.99h1.75c.54,0,.99-.44.99-.99V.99c0-.54.44-.99.99-.99s.99.44.99.99M5.7,19.11v1.52c0,.54.44.99.99.99h1.75c.54,0,.99.44.99.99s-.44.99-.99.99h-1.75c-.54,0-.99.44-.99.99v1.53c0,.54-.44.99-.99.99s-.99-.44-.99-.99v-1.53c0-.54-.44-.99-.99-.99H.99c-.54,0-.99-.44-.99-.99s.44-.99.99-.99h1.75c.54,0,.99-.44.99-.99v-1.52c0-.54.44-.99.99-.99s.99.44.99.99M24.54,19.11v1.52c0,.54.44.99.99.99h1.75c.54,0,.99.44.99.99s-.44.99-.99.99h-1.75c-.54,0-.99.44-.99.99v1.53c0,.54-.44.99-.99.99s-.99-.44-.99-.99v-1.53c0-.54-.44-.99-.99-.99h-1.75c-.54,0-.99-.44-.99-.99s.44-.99.99-.99h1.75c.54,0,.99-.44.99-.99v-1.52c0-.54.44-.99.99-.99s.99.44.99.99"/>
    </symbol>
  </defs>
  <g id="Layer_1-2" data-name="Layer 1">
    <use width="28.27" height="27.1" transform="scale(1.03 1)" xlink:href="#New_Symbol_13"/>
  </g>
</svg>