<?xml version="1.0" encoding="UTF-8"?>
<svg id="Layer_2" data-name="Layer 2" xmlns="http://www.w3.org/2000/svg" xmlns:xlink="http://www.w3.org/1999/xlink" viewBox="0 0 70 68">
  <defs>
    <style>
      .cls-1 {
        fill: #ff9800;
      }

      .cls-2 {
        fill: #353535;
      }
    </style>
    <symbol id="New_Symbol_6" data-name="New Symbol 6" viewBox="0 0 61.73 64.36">
      <path class="cls-2" d="M36.25,58.81h1.49c.53,0,.96-.43.96-.96v-1.71c0-.53.43-.96.96-.96s.96.43.96.96v1.71c0,.53.43.96.96.96h1.5c.53,0,.96.43.96.96s-.43.96-.96.96h-1.5c-.53,0-.96.43-.96.96v1.71c0,.53-.43.96-.96.96s-.96-.43-.96-.96v-1.71c0-.53-.43-.96-.96-.96h-1.49c-.53,0-.96-.43-.96-.96s.43-.96.96-.96M36.25,40.41h1.49c.53,0,.96-.43.96-.96v-1.71c0-.53.43-.96.96-.96s.96.43.96.96v1.71c0,.53.43.96.96.96h1.5c.53,0,.96.43.96.96s-.43.96-.96.96h-1.5c-.53,0-.96.43-.96.96v1.71c0,.53-.43.96-.96.96s-.96-.43-.96-.96v-1.71c0-.53-.43-.96-.96-.96h-1.49c-.53,0-.96-.43-.96-.96s.43-.96.96-.96M53.94,58.81h1.49c.53,0,.96-.43.96-.96v-1.71c0-.53.43-.96.96-.96s.96.43.96.96v1.71c0,.53.43.96.96.96h1.5c.53,0,.96.43.96.96s-.43.96-.96.96h-1.5c-.53,0-.96.43-.96.96v1.71c0,.53-.43.96-.96.96s-.96-.43-.96-.96v-1.71c0-.53-.43-.96-.96-.96h-1.49c-.53,0-.96-.43-.96-.96s.43-.96.96-.96M.96,58.81h1.49c.53,0,.96-.43.96-.96v-1.71c0-.53.43-.96.96-.96s.96.43.96.96v1.71c0,.53.43.96.96.96h1.5c.53,0,.96.43.96.96s-.43.96-.96.96h-1.5c-.53,0-.96.43-.96.96v1.71c0,.53-.43.96-.96.96s-.96-.43-.96-.96v-1.71c0-.53-.43-.96-.96-.96H.96c-.53,0-.96-.43-.96-.96s.43-.96.96-.96M.96,40.41h1.49c.53,0,.96-.43.96-.96v-1.71c0-.53.43-.96.96-.96s.96.43.96.96v1.71c0,.53.43.96.96.96h1.5c.53,0,.96.43.96.96s-.43.96-.96.96h-1.5c-.53,0-.96.43-.96.96v1.71c0,.53-.43.96-.96.96s-.96-.43-.96-.96v-1.71c0-.53-.43-.96-.96-.96H.96c-.53,0-.96-.43-.96-.96s.43-.96.96-.96M.96,22.02h1.49c.53,0,.96-.43.96-.96v-1.71c0-.53.43-.96.96-.96s.96.43.96.96v1.71c0,.53.43.96.96.96h1.5c.53,0,.96.43.96.96s-.43.96-.96.96h-1.5c-.53,0-.96.43-.96.96v1.71c0,.53-.43.96-.96.96s-.96-.43-.96-.96v-1.71c0-.53-.43-.96-.96-.96H.96c-.53,0-.96-.43-.96-.96s.43-.96.96-.96M.96,3.63h1.49c.53,0,.96-.43.96-.96V.96c0-.53.43-.96.96-.96s.96.43.96.96v1.71c0,.53.43.96.96.96h1.5c.53,0,.96.43.96.96s-.43.96-.96.96h-1.5c-.53,0-.96.43-.96.96v1.71c0,.53-.43.96-.96.96s-.96-.43-.96-.96v-1.71c0-.53-.43-.96-.96-.96H.96c-.53,0-.96-.43-.96-.96s.43-.96.96-.96M18.65,58.81h1.49c.53,0,.96-.43.96-.96v-1.71c0-.53.43-.96.96-.96s.96.43.96.96v1.71c0,.53.43.96.96.96h1.5c.53,0,.96.43.96.96s-.43.96-.96.96h-1.5c-.53,0-.96.43-.96.96v1.71c0,.53-.43.96-.96.96s-.96-.43-.96-.96v-1.71c0-.53-.43-.96-.96-.96h-1.49c-.53,0-.96-.43-.96-.96s.43-.96.96-.96M18.65,40.41h1.49c.53,0,.96-.43.96-.96v-1.71c0-.53.43-.96.96-.96s.96.43.96.96v1.71c0,.53.43.96.96.96h1.5c.53,0,.96.43.96.96s-.43.96-.96.96h-1.5c-.53,0-.96.43-.96.96v1.71c0,.53-.43.96-.96.96s-.96-.43-.96-.96v-1.71c0-.53-.43-.96-.96-.96h-1.49c-.53,0-.96-.43-.96-.96s.43-.96.96-.96M18.65,22.02h1.49c.53,0,.96-.43.96-.96v-1.71c0-.53.43-.96.96-.96s.96.43.96.96v1.71c0,.53.43.96.96.96h1.5c.53,0,.96.43.96.96s-.43.96-.96.96h-1.5c-.53,0-.96.43-.96.96v1.71c0,.53-.43.96-.96.96s-.96-.43-.96-.96v-1.71c0-.53-.43-.96-.96-.96h-1.49c-.53,0-.96-.43-.96-.96s.43-.96.96-.96"/>
    </symbol>
    <symbol id="New_Symbol_7" data-name="New Symbol 7" viewBox="0 0 67.74 70.23">
      <g>
        <path class="cls-1" d="M62.39,56.43H18.51c-2.95,0-5.34-2.39-5.34-5.34V5.35c0-4.81,5.86-7.17,9.19-3.7l43.87,45.75c3.26,3.39.85,9.03-3.85,9.03"/>
        <use width="61.73" height="64.36" transform="translate(0 5.87)" xlink:href="#New_Symbol_6"/>
      </g>
    </symbol>
  </defs>
  <g id="Layer_1-2" data-name="Layer 1">
    <use width="67.74" height="70.23" transform="translate(0 68) rotate(-90)" xlink:href="#New_Symbol_7"/>
  </g>
</svg>