<?xml version="1.0" encoding="UTF-8"?>
<svg id="Layer_2" data-name="Layer 2" xmlns="http://www.w3.org/2000/svg" xmlns:xlink="http://www.w3.org/1999/xlink" viewBox="0 0 66.6 60.89">
  <defs>
    <style>
      .cls-1 {
        fill: #ff9800;
      }

      .cls-2 {
        fill: #fff;
      }
    </style>
    <symbol id="New_Symbol_18" data-name="New Symbol 18" viewBox="0 0 66.6 60.89">
      <g>
        <path class="cls-1" d="M29.2,44.57c-2.94,4.61-7.93,7.34-13.35,7.34-7.12,0-13.41-4.79-15.29-11.66-.37-1.35-.56-2.76-.56-4.19,0-2.9.79-5.74,2.29-8.22l6.79-11.08H2.27l4.81-7.84h6.81L19.36,0h9.19l-5.48,8.94h15.34l-5.6,7.84h-14.54l-9.29,15.15c-.75,1.25-1.15,2.68-1.15,4.14,0,4.42,3.59,8.02,8.02,8.02,2.64,0,5.11-1.31,6.62-3.5l5.75-9.36h9.19l-8.2,13.35Z"/>
        <path class="cls-2" d="M62.23,36.41l-4.72,7.7h6.78l-4.8,7.84h-6.78l-5.48,8.95h-9.19l5.49-8.95h-15.9l5.59-7.84h15.1l9.29-15.16c.75-1.25,1.16-2.67,1.16-4.14,0-4.42-3.6-8.02-8.02-8.02-2.64,0-5.12,1.3-6.62,3.51l-5.76,9.36h-9.19l8.2-13.34c2.96-4.63,7.95-7.36,13.37-7.36,7.12,0,13.41,4.79,15.29,11.66.37,1.35.56,2.76.56,4.19,0,2.9-.79,5.74-2.3,8.22l-2.07,3.39Z"/>
      </g>
    </symbol>
  </defs>
  <g id="Layer_1-2" data-name="Layer 1">
    <use width="66.6" height="60.89" xlink:href="#New_Symbol_18"/>
  </g>
</svg>